<?xml version="1.0" encoding="UTF-8" standalone="no"?>
<!-- Created with Inkscape (http://www.inkscape.org/) -->

<svg
   xmlns:dc="http://purl.org/dc/elements/1.1/"
   xmlns:cc="http://creativecommons.org/ns#"
   xmlns:rdf="http://www.w3.org/1999/02/22-rdf-syntax-ns#"
   xmlns:svg="http://www.w3.org/2000/svg"
   xmlns="http://www.w3.org/2000/svg"
   xmlns:sodipodi="http://sodipodi.sourceforge.net/DTD/sodipodi-0.dtd"
   xmlns:inkscape="http://www.inkscape.org/namespaces/inkscape"
   id="svg5664"
   version="1.1"
   inkscape:version="0.48.4 r9939"
   width="744"
   height="330"
   sodipodi:docname="Logo-cine-cinema1.jpg">
  <metadata
     id="metadata5670">
    <rdf:RDF>
      <cc:Work
         rdf:about="">
        <dc:format>image/svg+xml</dc:format>
        <dc:type
           rdf:resource="http://purl.org/dc/dcmitype/StillImage" />
        <dc:title></dc:title>
      </cc:Work>
    </rdf:RDF>
  </metadata>
  <defs
     id="defs5668" />
  <sodipodi:namedview
     pagecolor="#ffffff"
     bordercolor="#666666"
     borderopacity="1"
     objecttolerance="10"
     gridtolerance="10"
     guidetolerance="10"
     inkscape:pageopacity="0"
     inkscape:pageshadow="2"
     inkscape:window-width="640"
     inkscape:window-height="480"
     id="namedview5666"
     showgrid="false"
     inkscape:zoom="0.3844086"
     inkscape:cx="372"
     inkscape:cy="165"
     inkscape:window-x="0"
     inkscape:window-y="0"
     inkscape:window-maximized="0"
     inkscape:current-layer="svg5664" />
  <g
     id="g5684"
     transform="translate(5.2027991,5.2027981)">
    <path
       style="fill:#989797"
       d="m 143.57762,303.25 c -0.33553,-2.6125 -1.51707,-16.45 -2.62565,-30.75 -1.10858,-14.3 -2.42832,-30.95 -2.93276,-37 -0.50444,-6.05 -1.1875,-15.275 -1.51792,-20.5 -0.33041,-5.225 -0.81195,-10.5125 -1.07008,-11.75 L 134.9619,201 84.980948,201 35,201 35,115.5 35,30 l 166,0 166,0 0,40.118277 0,40.118273 8.25,-0.62196 c 4.5375,-0.34208 23.1,-1.08187 41.25,-1.64399 18.15,-0.56212 71.925,-2.36593 119.5,-4.00848 C 664.70292,99.5186 665.30933,99.5 681.47959,99.5 l 14.97959,0 8.20727,81.5 c 4.51401,44.825 8.23569,82.88325 8.27042,84.57389 l 0.0631,3.0739 -19.25,1.23832 c -10.5875,0.68108 -21.725,1.43654 -24.75,1.67881 -3.025,0.24226 -15.625,1.12446 -28,1.96042 -12.375,0.83597 -31.95,2.17904 -43.5,2.98459 -11.55,0.80556 -37.425,2.598 -57.5,3.9832 -61.99994,4.27808 -78.99406,5.46286 -93.5,6.51854 -7.7,0.56037 -27.05,1.91444 -43,3.00903 -15.95,1.0946 -31.925,2.21181 -35.5,2.48269 -3.575,0.27088 -23.15,1.62723 -43.5,3.01412 -20.35,1.38689 -53.2,3.64603 -73,5.02031 -19.8,1.37429 -45.9,3.17797 -58,4.00818 -12.1,0.83021 -27.82745,1.94699 -34.94989,2.48173 C 151.42766,307.56248 145.28239,308 144.89394,308 c -0.38844,0 -0.98079,-2.1375 -1.31632,-4.75 z m 69.91864,-21.70437 C 227.56287,274.66348 236,260.03627 236,242.53155 c 0,-6.11955 -0.35339,-8.55224 -1.25,-8.60472 -4.02539,-0.23562 -16.74153,0.2353 -19.5,0.72215 -3.2367,0.57125 -3.25,0.59786 -3.25,6.50215 0,8.34118 -2.73701,13.40265 -8.66568,16.02518 -7.63671,3.37808 -15.4588,0.38197 -19.13312,-7.3286 -1.73761,-3.64636 -2.49205,-9.58079 -4.67683,-36.78804 -3.53374,-44.00596 -3.56778,-42.52174 1.11874,-48.77841 4.49149,-5.99629 14.05954,-6.42559 20.23881,-0.90809 3.3955,3.03186 6.07054,9.40307 6.09612,14.51929 l 0.022,4.39245 6.14669,-0.64245 c 3.38068,-0.35335 8.78068,-0.64246 12,-0.64246 l 5.85331,0 0,-3.7899 c 0,-5.39176 -2.56681,-14.8039 -5.7623,-21.12954 -3.9997,-7.91764 -11.83602,-15.52482 -19.92265,-19.34011 -6.08808,-2.87237 -7.77509,-3.21669 -15.81505,-3.2279 -7.81851,-0.0109 -9.73837,0.35006 -14.62454,2.74962 -10.7355,5.27212 -19.70709,18.00974 -21.65932,30.75133 -0.98521,6.43014 -0.35188,16.8275 4.17166,68.4865 1.61409,18.43291 3.38463,24.25405 10.18798,33.49574 4.69739,6.38095 12.7665,12.33007 19.89131,14.66528 6.81696,2.23431 19.19479,1.22836 26.02917,-2.11539 z m 66.16952,-4.87808 C 280.1005,276.23284 270.35034,157.04537 268.42431,139.25 l -0.56822,-5.25 -11.36903,0 c -6.25296,0 -11.56906,0.3375 -11.81355,0.75 -0.24449,0.4125 2.18804,32.025 5.40564,70.25 3.21759,38.225 5.86607,70.35634 5.88551,71.40297 0.0333,1.79606 0.68917,1.86794 11.67269,1.27932 6.40055,-0.34302 11.81334,-0.79965 12.02843,-1.01474 z m 47.25753,-3.26895 c 0.43559,-0.42384 -0.3899,-11.39905 -3.9684,-52.7612 -1.13548,-13.12443 -1.92734,-24.82443 -1.75971,-26 0.19318,-1.35466 6.77957,10.67993 17.98531,32.8626 23.66347,46.84374 22.06584,44.035 24.92493,43.81958 1.31701,-0.0992 7.25293,-0.48146 13.19093,-0.84939 l 10.79637,-0.66897 -0.57046,-4.15061 C 387.20853,263.36777 386.07421,251.15 385.00156,238.5 c -1.07264,-12.65 -3.32986,-38.525 -5.01603,-57.5 -1.68618,-18.975 -3.33956,-38.2125 -3.67419,-42.75 l -0.6084,-8.25 -11.85147,0 -11.85147,0 0,2.98469 c 0,1.64159 1.37126,18.39056 3.04725,37.21994 1.67599,18.82937 2.91349,35.70532 2.75,37.5021 -0.25033,2.7512 -3.43271,-2.98184 -20.16084,-36.31963 l -19.86359,-39.5865 -12.30368,0.3497 c -6.76703,0.19233 -12.64701,0.6933 -13.06663,1.11325 -0.41962,0.41995 0.42793,15.04495 1.88344,32.5 1.45552,17.45505 4.04143,48.61145 5.74648,69.23645 1.70506,20.625 3.30318,38.11988 3.55138,38.87752 0.36674,1.11945 2.55554,1.2422 11.68374,0.65524 6.17785,-0.39725 11.42294,-0.90762 11.65576,-1.13416 z m 119.34848,-7.30017 c 14.72448,-0.99477 27.00154,-2.03843 27.28235,-2.31924 0.41394,-0.41394 -1.44916,-24.0856 -1.91721,-24.35924 -0.0753,-0.044 -8.33164,0.34844 -18.3474,0.87215 -10.01576,0.52372 -18.82619,0.71594 -19.57875,0.42716 -1.00091,-0.38409 -1.72377,-4.91415 -2.69228,-16.87216 -0.7282,-8.99091 -1.36776,-16.56475 -1.42125,-16.83076 -0.0535,-0.26601 3.50275,-0.63997 7.90275,-0.83101 4.4,-0.19105 12.95,-0.6484 19,-1.01634 l 11,-0.66899 -0.26445,-11 c -0.14545,-6.05 -0.48978,-11.6171 -0.76518,-12.37134 -0.41326,-1.1318 -3.87962,-1.24464 -19.84462,-0.64603 l -19.34389,0.72531 -0.60621,-5.85397 c -0.33341,-3.21968 -0.9001,-9.51102 -1.2593,-13.98074 l -0.6531,-8.12678 3.86837,-0.47916 c 2.12761,-0.26354 8.81838,-0.55691 14.86838,-0.65194 6.05,-0.095 13.12472,-0.44114 15.7216,-0.76913 l 4.72159,-0.59635 -0.5999,-6.12493 C 463.01335,141.25622 462.45944,135.8 462.11239,132.5 l -0.63101,-6 -5.74069,0.0961 C 452.58331,126.64892 450,126.36637 450,125.9682 c 0,-0.39817 0.70136,-2.40255 1.55858,-4.45416 0.85722,-2.05162 1.41538,-3.87342 1.24035,-4.04845 -0.17503,-0.17503 -6.40543,-0.063 -13.84532,0.24893 l -13.52709,0.56716 -2.69331,4.82396 -2.69332,4.82395 -10.26994,0.28521 L 399.5,128.5 l 0.24353,9 c 0.13395,4.95 0.91778,16.2 1.74186,25 0.82408,8.8 3.07958,34.225 5.01222,56.5 4.72617,54.47216 3.74271,49.00978 8.81366,48.95355 2.3038,-0.0256 16.23604,-0.86036 30.96052,-1.85512 z m 72.61287,-4.70194 c 0.21157,-0.18287 -0.81235,-13.50939 -2.27538,-29.61449 -1.46302,-16.1051 -2.89333,-32.432 -3.17845,-36.282 l -0.51842,-7 4.65292,12 c 2.55911,6.6 8.70897,22.575 13.66637,35.5 4.9574,12.925 9.15807,23.66227 9.33481,23.8606 0.17675,0.19833 4.3035,0.0454 9.17056,-0.33979 l 8.8492,-0.70039 3.7528,-20.16021 c 7.77679,-41.77727 9.92214,-52.73234 10.2604,-52.39407 0.19153,0.19153 1.72837,15.1725 3.4152,33.29105 1.68683,18.11855 3.2991,34.02278 3.58283,35.34275 l 0.51587,2.39993 11.58067,-0.62062 c 6.36937,-0.34135 11.67403,-0.74632 11.78814,-0.89994 0.11411,-0.15362 -2.63208,-29.75431 -6.10265,-65.77931 -3.47057,-36.025 -6.32574,-66.0625 -6.34483,-66.75 -0.0258,-0.93042 -3.18165,-1.25 -12.34357,-1.25 -8.35583,0 -12.80541,0.40144 -13.85499,1.25 -0.85037,0.6875 -2.22945,4.175 -3.06463,7.75 -9.99717,42.79327 -17.29269,71.87191 -17.87763,71.25712 -0.39621,-0.41642 -3.95545,-8.18212 -7.90943,-17.25712 -9.19444,-21.10263 -23.78763,-54.79419 -25.06468,-57.86725 -0.97573,-2.34799 -1.08883,-2.36397 -13.90372,-1.96469 -7.106,0.2214 -13.20001,0.68257 -13.54226,1.02482 -0.55982,0.55981 1.32119,22.52477 9.06101,105.80712 1.35452,14.575 2.46331,27.53085 2.46398,28.79078 l 10e-4,2.29078 11.75,-0.6763 c 6.4625,-0.37196 11.9231,-0.82591 12.13466,-1.00877 z m 120.89671,-7.8898 c 0.15475,-0.12985 1.00338,-5.63926 1.88584,-12.24313 l 1.60449,-12.00705 6.01084,-0.62825 C 652.5885,228.28272 658.33563,228 662.05392,228 l 6.76054,0 3.65553,11.60673 3.65552,11.60673 12.18725,-0.71815 c 6.70298,-0.39499 12.26936,-0.78764 12.36973,-0.87256 0.34325,-0.29041 -43.22472,-129.49831 -43.89033,-130.16392 -0.36527,-0.36527 -5.83282,-0.34118 -12.15012,0.0535 l -11.486,0.71768 -0.60116,4.63497 c -0.33063,2.54924 -2.84925,21.73498 -5.59694,42.63498 -2.74768,20.9 -6.33727,48.2098 -7.97686,60.68844 C 617.34148,240.66708 616,251.83709 616,253.01068 c 0,2.0971 0.2021,2.12175 11.75,1.43295 6.4625,-0.38546 11.87661,-0.80709 12.03137,-0.93694 z M 646.55945,204 c -0.13436,-0.275 0.33715,-5.9 1.04781,-12.5 0.71066,-6.6 1.31475,-13.88594 1.34243,-16.19098 0.0277,-2.30504 0.42795,-4.42438 0.88951,-4.70964 0.75387,-0.46592 10.17044,29.24251 10.16362,32.06529 -0.003,1.13802 -12.91322,2.42041 -13.44337,1.33533 z"
       id="path5690"
       inkscape:connector-curvature="0" />
    <path
       style="fill:#de0131"
       d="m 143.13345,293.25 c -0.62814,-7.5625 -2.289,-28.375 -3.69081,-46.25 -1.40181,-17.875 -2.86237,-35.65 -3.24569,-39.5 L 135.5,200.5 85.25,200.24075 35,199.9815 35,114.9878 35,29.994101 200.75,30.24705 366.5,30.5 l 0.15761,39.5 0.15761,39.5 14.84239,-0.14402 c 13.7138,-0.13307 37.61719,-0.87864 107.84239,-3.3637 14.85,-0.5255 40.725,-1.41344 57.5,-1.97319 39.10735,-1.30496 80.66534,-2.72361 118.38362,-4.041246 16.43599,-0.574166 30.05569,-0.871871 30.26599,-0.661567 0.81625,0.816243 17.06185,167.228343 16.39701,167.963023 -0.38787,0.42862 -13.04454,1.65776 -28.12592,2.73143 -50.12781,3.56869 -84.17488,5.94777 -107.4207,7.50614 -22.51385,1.5093 -79.19362,5.47189 -107,7.48056 -7.7,0.55623 -24.35,1.69652 -37,2.53396 -12.65,0.83745 -28.85,1.96044 -36,2.49554 -11.94475,0.89394 -35.96356,2.56465 -92.5,6.43413 -23.74712,1.62531 -58.91615,4.07033 -80.5,5.59651 -7.7,0.54446 -20.525,1.43118 -28.5,1.97048 -7.975,0.5393 -20.125,1.4184 -27,1.95356 -6.875,0.53515 -15.02551,0.98322 -18.11224,0.9957 L 144.27552,307 143.13345,293.25 z m 61.40117,-8.34103 c 7.77092,-1.43654 12.66507,-4.03884 19.17508,-10.19574 9.09971,-8.60613 14.4058,-23.62947 12.82222,-36.30403 l -0.68802,-5.50676 -11.17195,0.62796 c -6.14457,0.34538 -11.77641,0.8193 -12.51518,1.05317 -1.01011,0.31976 -1.17561,1.64404 -0.66732,5.3397 1.83001,13.30581 -11.1368,22.83236 -21.5375,15.82333 -5.91957,-3.98919 -7.00801,-7.13803 -8.47017,-24.50399 -4.39138,-52.15621 -4.72961,-57.96165 -3.57983,-61.44551 2.84856,-8.63123 12.94361,-12.4594 20.07425,-7.61242 4.97959,3.38482 7.68443,7.94351 8.47699,14.28697 l 0.69072,5.52835 6.28136,0 c 3.45474,0 8.96726,-0.28073 12.25004,-0.62385 l 5.96869,-0.62385 -0.43286,-5.62615 c -0.94371,-12.26589 -6.47627,-23.51201 -15.72535,-31.96514 -8.8391,-8.07844 -13.07156,-9.65126 -25.98579,-9.65652 -13.02458,-0.005 -16.53251,1.39758 -25.22158,10.08666 -10.36976,10.36975 -13.08805,20.8202 -11.34068,43.59905 3.06653,39.97564 5.16109,62.4631 6.16541,66.19289 4.17532,15.50594 18.34786,29.15845 32.80927,31.60542 6.56611,1.11103 6.16822,1.11354 12.6222,-0.0795 z M 277.75,277.41988 c 1.77064,-0.36041 2.25295,-1.14634 2.26387,-3.68893 0.0194,-4.51584 -11.04721,-137.93221 -11.57565,-139.55341 -0.3425,-1.05077 -2.84574,-1.17843 -12.18464,-0.62139 -6.46447,0.38558 -11.93153,0.85864 -12.14902,1.05123 -0.21749,0.19259 0.56723,11.72222 1.74384,25.62139 1.1766,13.89918 3.7059,44.39623 5.62066,67.77123 1.91476,23.375 3.7395,44.37512 4.05498,46.66694 l 0.57359,4.16694 9.70119,-0.47801 c 5.33565,-0.26291 10.71368,-0.68411 11.95118,-0.93599 z m 46.08952,-3.03916 4.33951,-0.53011 -0.60317,-5.67531 C 327.24412,265.05389 325.85789,249 324.49537,232.5 c -1.36253,-16.5 -2.65362,-31.93473 -2.86908,-34.2994 -0.21546,-2.36467 -0.27961,-4.16467 -0.14254,-4 0.55041,0.66125 17.93873,34.63865 28.46634,55.62424 l 11.19946,22.32485 10.17522,-0.61748 C 386.3811,270.61852 388,270.26409 388,267.88151 c 0,-1.11533 -0.89372,-12.00744 -1.98604,-24.20469 C 384.92164,231.47957 383.57283,216.325 383.01659,210 c -2.37531,-27.0099 -5.08976,-57.36581 -6.15337,-68.81359 l -1.14406,-12.3136 -11.60958,0.68106 c -6.38527,0.37459 -11.89946,0.96571 -12.25375,1.3136 -0.58761,0.57699 0.16145,10.52467 4.56276,60.59439 0.82006,9.32903 1.31927,17.13362 1.10935,17.34353 -0.29281,0.29282 -24.10277,-46.44059 -37.65093,-73.90001 l -1.77354,-3.59462 -12.80174,0.45468 c -7.04095,0.25007 -13.16144,0.78735 -13.60108,1.19397 -0.43965,0.40661 -0.33584,5.41959 0.23068,11.13994 0.56653,5.72036 1.48866,16.02565 2.04919,22.90065 0.56053,6.875 1.45563,17.675 1.98911,24 5.38919,63.89488 7.14098,83.36996 7.56019,84.04825 0.47715,0.77204 11.48773,0.41015 20.3097,-0.66753 z M 437.5,267.04494 c 7.7,-0.52677 19.12317,-1.25553 25.38482,-1.61946 l 11.38482,-0.66168 -0.69152,-10.04041 c -0.38034,-5.52222 -0.95504,-11.35801 -1.27713,-12.96842 l -0.5856,-2.92803 -10.6077,0.61168 c -5.83423,0.33642 -14.50722,0.87013 -19.2733,1.18601 l -8.66562,0.57434 -0.55152,-5.34949 c -2.01664,-19.56045 -2.52988,-27.33685 -1.84916,-28.01757 0.42816,-0.42816 9.06661,-1.25161 19.19656,-1.82989 10.12994,-0.57828 18.59086,-1.2242 18.80204,-1.43538 0.60707,-0.60707 -1.84516,-23.99117 -2.5939,-24.73509 -0.37004,-0.36764 -8.98075,-0.2756 -19.13492,0.20454 -10.15416,0.48015 -18.67125,0.66386 -18.92686,0.40826 -0.78602,-0.78603 -2.88855,-25.8998 -2.2298,-26.63395 0.34034,-0.37928 9.10836,-1.01092 19.48451,-1.40365 l 18.86572,-0.71406 -0.66057,-8.09635 C 463.20755,139.14335 462.6475,133.3625 462.32632,130.75 l -0.58398,-4.75 -5.83563,0 -5.83564,0 1.92893,-4.5 1.92893,-4.5 -9.21447,0.009 c -5.06795,0.005 -11.63801,0.29969 -14.60013,0.65536 -4.65238,0.55862 -5.60548,1.05531 -7,3.64792 C 419.71416,127.63334 418.88555,128 408,128 c -6.25279,0 -10,0.38949 -10,1.03941 0,0.57168 0.42771,5.18418 0.95048,10.25 0.52276,5.06583 3.26075,35.76059 6.08442,68.21059 2.82368,32.45 5.312,59.57595 5.52961,60.27989 0.28995,0.93792 2.07089,1.13867 6.66558,0.75136 3.44845,-0.2907 12.56991,-0.95954 20.26991,-1.48631 z m 82.15986,-5.37147 c 0.227,-0.227 -0.0371,-4.40889 -0.58697,-9.2931 -2.2009,-19.55059 -5.21808,-54.32275 -4.90531,-56.53217 0.20523,-1.4497 5.16061,10.27867 12.95079,30.6518 l 12.61836,33 9.63164,0.28621 c 5.29739,0.15742 9.63163,0.10219 9.63163,-0.12272 0,-0.95965 11.98032,-64.52851 12.84623,-68.16349 0.52408,-2.2 0.99165,-3.1 1.03906,-2 0.17499,4.06071 6.34072,68.00963 6.58295,68.27628 0.51331,0.56504 22.42991,-1.0953 23.54361,-1.78361 0.86651,-0.53552 0.63818,-5.96958 -0.90777,-21.60408 -1.13602,-11.48873 -3.1998,-32.81359 -4.5862,-47.38859 -1.38639,-14.575 -2.97378,-31.225 -3.52754,-37 -0.55375,-5.775 -1.25663,-13.65 -1.56195,-17.5 -1.01019,-12.73799 0.52658,-11.60093 -14.69818,-10.87522 -7.27661,0.34686 -13.5398,0.91068 -13.9182,1.25294 -0.37839,0.34225 -4.85108,18.05978 -9.93931,39.37228 -5.08823,21.3125 -9.50998,38.75 -9.82611,38.75 -0.31614,0 -1.31457,-1.6875 -2.21874,-3.75 -0.90418,-2.0625 -5.5575,-12.75 -10.34072,-23.75 -4.78322,-11 -11.54664,-26.525 -15.02983,-34.5 l -6.33307,-14.5 -13.31211,0.35699 c -7.32167,0.19634 -13.59062,0.64634 -13.93102,1 -0.55158,0.57307 0.40977,12.45426 4.05725,50.14301 0.61212,6.325 2.44364,26.575 4.07003,45 1.62639,18.425 3.22744,35.47931 3.55788,37.89847 l 0.60081,4.39846 12.04003,-0.60537 c 6.62202,-0.33295 12.22576,-0.79109 12.45276,-1.01809 z m 112.60457,-7.26724 c 4.27044,-0.35415 7.9526,-0.94837 8.18258,-1.32049 0.22998,-0.37212 0.9597,-5.48935 1.62161,-11.37162 0.6619,-5.88227 1.70474,-11.10593 2.31742,-11.60814 0.61268,-0.50222 6.24191,-1.06901 12.50942,-1.25955 l 11.39545,-0.34643 3.82932,11.39144 c 2.10613,6.2653 3.95338,11.5155 4.105,11.66713 0.40328,0.40327 24.11163,-1.56209 24.58781,-2.03828 0.22187,-0.22186 -9.38917,-29.72506 -21.35785,-65.56265 l -21.76125,-65.15926 -11.76384,0.35081 c -6.47012,0.19295 -12.09632,0.68337 -12.50267,1.08984 -0.82347,0.8237 -0.615,-0.66495 -10.39924,74.26097 -3.87839,29.7 -7.31915,55.7363 -7.64613,57.85845 l -0.5945,3.85844 4.85622,-0.58338 c 2.67092,-0.32086 8.35021,-0.87313 12.62065,-1.22728 z M 647.01071,202.25 c 0.019,-3.10729 2.94957,-29.54362 3.31559,-29.90964 0.19482,-0.19481 1.59028,3.81141 3.10104,8.90272 1.51076,5.09131 3.60725,11.93061 4.65886,15.19845 2.26183,7.02855 1.88109,7.52065 -5.8362,7.54316 -4.3432,0.0127 -5.24815,-0.28696 -5.23929,-1.73469 z M 102.45915,181.9294 c 6.4063,-2.3969 15.40178,-10.12958 19.07472,-16.39698 3.54209,-6.04412 5.44289,-13.11113 5.45531,-20.28242 L 127,139 l -11.5,0 -11.5,0 -0.004,5.25 c -0.009,12.27131 -11.713434,19.74962 -21.098377,13.48007 -6.760337,-4.5162 -6.894775,-5.34938 -6.894775,-42.73007 0,-37.380694 0.134438,-38.213868 6.894775,-42.730067 C 92.282826,66.000385 103.98752,73.47869 103.99626,85.75 L 104,91 l 11.62849,0 11.62848,0 -0.49561,-7.75 C 126.47543,78.778929 125.32748,73.052615 124.04808,69.71542 121.15459,62.167976 112.7077,52.982596 105.35033,49.38297 98.221291,45.895058 87.726212,45.065552 79.816854,47.364864 68.600407,50.625574 58.604413,60.907347 54.948259,72.944435 c -1.89612,6.242563 -2.001629,8.926581 -1.733628,44.101335 0.2783,36.52642 0.342855,37.59659 2.605968,43.20089 2.521019,6.24297 10.159755,15.34201 15.81287,18.83583 8.485229,5.24416 21.264103,6.42435 30.825681,2.84691 z M 165.7633,82.75 166.0266,49 l -11.88966,0 -11.88967,0 -0.0966,34.031502 -0.0966,34.031498 11.723,-0.2815 11.723,-0.2815 0.2633,-33.75 z m 43.2277,32.25482 c 1.38603,-0.74178 1.77657,-1.88762 1.53378,-4.5 -0.44124,-4.74756 0.85213,-4.42284 2.52066,0.63285 l 1.36555,4.13767 11.87041,-0.5469 c 6.52872,-0.3008 12.09201,-0.76852 12.36287,-1.03938 0.27086,-0.27085 -5.5008,-14.935191 -12.8259,-32.587416 L 212.5,49.006689 l -12.25,-0.0033 c -9.11964,-0.0025 -12.25744,0.31608 -12.27911,1.246655 -0.016,0.6875 -0.12851,15.76249 -0.25,33.499977 L 187.5,115.99995 l 9.81574,3e-5 c 5.39866,1e-5 10.65253,-0.44781 11.67526,-0.99516 z M 266.76385,81.238849 267.02771,49 255.51385,49 244,49 l 0,32.595362 0,32.595358 11.25,-0.35651 11.25,-0.35651 0.26385,-32.238851 z m 81.46394,29.120371 C 348.65251,110.09673 349,107.65852 349,104.94098 L 349,100 l -18.5,0 -18.5,0 0,-13.5 0,-13.5 18.5,0 18.5,0 0,-12 0,-12 -6.01254,0 -6.01255,0 2.51255,-3.980128 C 340.86935,42.830801 342,40.805801 342,40.519872 342,40.233942 335.94397,40 328.54215,40 l -13.45784,0 -2.63718,4.5 -2.63717,4.5 -10.40498,0 L 289,49 l 0,31.645431 0,31.645429 29.22779,-0.7272 c 16.07529,-0.39995 29.57529,-0.94196 30,-1.20444 z"
       id="path5688"
       inkscape:connector-curvature="0" />
    <path
       style="fill:#1b191d"
       d="M 35,114.99705 35,29.994101 200.75,30.24705 366.5,30.5 l 0.18024,38.55385 c 0.0991,21.204617 -0.12586,39.04378 -0.5,39.64258 -0.37413,0.5988 -4.39274,1.25369 -8.93024,1.45531 l -8.25,0.36659 0,-5.25916 0,-5.25917 -18.5,0 -18.5,0 0,-13.5 0,-13.5 18.5,0 18.5,0 0,-12 0,-12 -6.01254,0 -6.01255,0 2.51255,-3.980128 C 340.86935,42.830801 342,40.805801 342,40.519872 342,40.233942 335.94397,40 328.54215,40 l -13.45784,0 -2.63718,4.5 -2.63717,4.5 -10.39093,0 -10.39094,0 -0.26404,31.75 L 288.5,112.5 277.75,112.78383 267,113.06766 267,81.033832 267,49 l -11.5,0 -11.5,0 0,32.5 0,32.5 -2.275,0 c -2.04356,0 -3.64577,-3.30595 -15.75,-32.498223 L 212.5,49.003555 l -12.25,-0.0018 c -9.11309,-0.0013 -12.26019,0.318316 -12.2898,1.248223 -0.0219,0.6875 -0.025,15.512865 -0.007,32.945255 0.0181,17.432397 -0.30151,31.894037 -0.7102,32.136987 -0.4087,0.24295 -5.35559,0.76613 -10.99309,1.16261 L 166,117.21574 166,83.107869 166,49 l -11.87778,0 -11.87779,0 -0.1061,33.25 c -0.0584,18.2875 -0.11335,33.8125 -0.12222,34.5 -0.0111,0.85792 -1.87957,1.25 -5.95709,1.25 -3.26754,0 -6.16882,0.36864 -6.44728,0.81921 -0.49702,0.80418 -0.26104,4.44108 2.76935,42.68079 0.82813,10.45 1.80968,23.3875 2.18122,28.75 L 135.23784,200 85.118919,200 35,200 35,114.99705 z m 67.45915,66.93235 c 6.4063,-2.3969 15.40178,-10.12958 19.07472,-16.39698 3.54209,-6.04412 5.44289,-13.11113 5.45531,-20.28242 L 127,139 l -11.5,0 -11.5,0 -0.004,5.25 c -0.009,12.27131 -11.713434,19.74962 -21.098377,13.48007 -6.760337,-4.5162 -6.894775,-5.34938 -6.894775,-42.73007 0,-37.380694 0.134438,-38.213868 6.894775,-42.730067 C 92.282826,66.000385 103.98752,73.47869 103.99626,85.75 L 104,91 l 11.62849,0 11.62848,0 -0.49561,-7.75 C 126.47543,78.778929 125.32748,73.052615 124.04808,69.71542 121.15459,62.167976 112.7077,52.982596 105.35033,49.38297 98.221291,45.895058 87.726212,45.065552 79.816854,47.364864 68.600407,50.625574 58.604413,60.907347 54.948259,72.944435 c -1.89612,6.242563 -2.001629,8.926581 -1.733628,44.101335 0.2783,36.52642 0.342855,37.59659 2.605968,43.20089 2.521019,6.24297 10.159755,15.34201 15.81287,18.83583 8.485229,5.24416 21.264103,6.42435 30.825681,2.84691 z M 572.15789,190 c 0,-1.375 0.22698,-1.9375 0.50439,-1.25 0.27741,0.6875 0.27741,1.8125 0,2.5 -0.27741,0.6875 -0.50439,0.125 -0.50439,-1.25 z m 77.92106,-16.41667 c -0.0434,-1.05416 0.19293,-1.64479 0.52522,-1.3125 0.33229,0.33229 0.36781,1.19479 0.0789,1.91667 -0.31922,0.79773 -0.55618,0.56078 -0.60416,-0.60417 z M 210.93616,114.25 c -0.0351,-0.4125 -0.20779,-2.2125 -0.38373,-4 -0.17594,-1.7875 -0.0126,-3.25 0.36295,-3.25 0.63631,0 3.08462,5.81078 3.08462,7.321 0,0.93273 -2.98429,0.86358 -3.06384,-0.071 z"
       id="path5686"
       inkscape:connector-curvature="0" />
  </g>
</svg>
