<?xml version="1.0" standalone="no"?><svg xmlns="http://www.w3.org/2000/svg" viewBox="0 0 1440 320"><path fill="#0099ff" fill-opacity="1" d="M0,96L12,133.3C24,171,48,245,72,266.7C96,288,120,256,144,224C168,192,192,160,216,133.3C240,107,264,85,288,69.3C312,53,336,43,360,53.3C384,64,408,96,432,101.3C456,107,480,85,504,112C528,139,552,213,576,218.7C600,224,624,160,648,149.3C672,139,696,181,720,213.3C744,245,768,267,792,261.3C816,256,840,224,864,224C888,224,912,256,936,224C960,192,984,96,1008,90.7C1032,85,1056,171,1080,192C1104,213,1128,171,1152,128C1176,85,1200,43,1224,21.3C1248,0,1272,0,1296,21.3C1320,43,1344,85,1368,101.3C1392,117,1416,107,1428,101.3L1440,96L1440,320L1428,320C1416,320,1392,320,1368,320C1344,320,1320,320,1296,320C1272,320,1248,320,1224,320C1200,320,1176,320,1152,320C1128,320,1104,320,1080,320C1056,320,1032,320,1008,320C984,320,960,320,936,320C912,320,888,320,864,320C840,320,816,320,792,320C768,320,744,320,720,320C696,320,672,320,648,320C624,320,600,320,576,320C552,320,528,320,504,320C480,320,456,320,432,320C408,320,384,320,360,320C336,320,312,320,288,320C264,320,240,320,216,320C192,320,168,320,144,320C120,320,96,320,72,320C48,320,24,320,12,320L0,320Z"></path></svg>